<?xml version="1.0" encoding="UTF-8"?>
<!DOCTYPE svg PUBLIC "-//W3C//DTD SVG 1.1//EN" "http://www.w3.org/Graphics/SVG/1.1/DTD/svg11.dtd">
<!-- Creator: CorelDRAW X8 -->
<svg xmlns="http://www.w3.org/2000/svg" xml:space="preserve" width="182.88mm" height="325.12mm" version="1.1" style="shape-rendering:geometricPrecision; text-rendering:geometricPrecision; image-rendering:optimizeQuality; fill-rule:evenodd; clip-rule:evenodd"
viewBox="0 0 18288 32512"
 xmlns:xlink="http://www.w3.org/1999/xlink">
 <defs>
  <style type="text/css">
   <![CDATA[
    .str0 {stroke:black;stroke-width:20}
    .fil2 {fill:none}
    .fil0 {fill:black}
    .fil3 {fill:#040707}
    .fil1 {fill:#FF8FC5}
    .fil4 {fill:#FF7DBC}
   ]]>
  </style>
 </defs>
 <g id="Warstwa_x0020_1">
  <metadata id="CorelCorpID_0Corel-Layer"/>
  <path class="fil0" d="M9011 7027c-303,11 -2116,-324 -2116,-2116 0,-1792 1566,-2117 2116,-2117 551,0 678,755 134,628 -543,-127 -1086,-162 -1390,176 -303,339 -550,854 -197,1066 353,211 712,-353 670,-501 -42,-148 169,-261 219,-64 49,198 -21,621 -21,621 0,0 395,-49 395,261 0,311 -151,421 -151,421 0,0 285,108 652,-75 367,-184 465,-381 437,-621 -28,-240 -423,-381 -423,-381 0,0 480,-85 691,99 212,183 92,162 92,162 0,0 233,-92 416,-71 184,22 261,36 261,36 0,0 141,-170 162,-233 22,-64 28,-172 28,-172 0,0 426,1044 -242,1980 -667,936 -1733,901 -1733,901z"/>
  <path class="fil1" d="M7157 5071c393,-8 606,15 896,-285 142,-146 246,333 100,480 -105,107 -196,133 -303,173 212,25 364,8 546,341 107,197 180,812 -89,907 281,-121 180,-906 -223,-1139 -112,-65 -580,-39 -286,-154 269,-104 505,-270 305,-568 -292,299 -554,264 -946,245z"/>
  <path class="fil2" d="M7157 5071c356,0 489,38 806,-153 158,-96 125,-276 229,81 119,410 -761,466 -330,460 336,-5 612,368 607,720 -2,122 28,456 -162,508"/>
  <path class="fil1" d="M9323 5558c10,405 -120,241 -354,456 75,116 631,52 727,-322 -50,516 -787,500 -793,322 -8,-234 358,20 420,-456z"/>
  <path class="fil2" d="M9323 5558c0,365 -123,219 -378,435 -90,77 452,270 731,-204 3,-5 21,-85 20,-97"/>
  <path class="fil1" d="M10134 6094c-113,439 -783,331 -734,550 25,20 438,-50 649,0 -221,-19 -702,160 -713,3 -21,-322 631,-157 798,-553z"/>
  <path class="fil2" d="M10134 6094c-99,395 -574,240 -730,467 -185,268 393,-4 645,83"/>
  <g id="_2307022015760">
   <path class="fil0" d="M9432 4986c219,-121 555,53 586,177 -47,-64 -445,-193 -586,-177z"/>
  </g>
  <path class="fil2" d="M9432 4986c231,-97 579,147 586,177"/>
  <g id="_2307022015504">
   <path class="fil0" d="M9460 5120c262,-37 407,-30 529,212 -204,-167 -266,-149 -529,-212z"/>
  </g>
  <path class="fil2" d="M9460 5120c243,0 403,29 529,212"/>
  <g id="_2307022015472">
   <path class="fil0" d="M10504 5269c304,-65 649,-150 889,148 -268,-192 -587,-130 -889,-148z"/>
  </g>
  <path class="fil2" d="M10504 5269c294,7 349,-124 739,55 35,16 129,60 150,93"/>
  <g id="_2307022013104">
   <path class="fil0" d="M10554 5396c187,-25 477,-25 592,162 -92,-66 -474,-130 -592,-162z"/>
  </g>
  <path class="fil2" d="M10554 5396c136,0 509,49 592,162"/>
  <path class="fil3" d="M10611 4917c-165,45 -66,241 82,200 124,-35 91,-247 -82,-200z"/>
  <path class="fil4" d="M10611 4917c173,-47 206,165 82,200 -148,41 -247,-155 -82,-200zm176 202c129,-353 -376,-299 -301,-64 7,21 44,68 68,82 97,56 166,14 233,-18z"/>
  <path class="fil3" d="M10029 4892c-34,77 -50,169 67,175 86,5 129,-38 128,-138 -55,-76 -124,-63 -195,-37z"/>
  <path class="fil4" d="M10029 4892c71,-26 140,-39 195,37 1,100 -42,143 -128,138 -117,-6 -101,-98 -67,-175zm-67 155c153,135 353,13 290,-150 -39,-103 -308,-122 -290,150z"/>
  <path class="fil4" d="M10304 5163c-31,85 -42,83 -107,84l-39 -1c-2,0 -7,0 -10,1 65,49 111,43 166,-23 32,64 113,102 166,31 -107,18 -205,-29 -87,-151l-125 -12 29 59c2,3 5,8 7,12z"/>
  <path class="fil2 str0" d="M10027 4424c107,92 129,132 125,150 71,-24 242,-75 383,-59 184,22 261,36 261,36 0,0 141,-170 162,-233 22,-64 28,-172 28,-172 0,0 195,479 114,1079 103,26 201,81 285,182 4,3 6,7 8,10 -95,-69 -198,-105 -303,-124 -10,56 -22,113 -37,170 37,25 69,56 93,95 -21,-16 -59,-31 -106,-46 -57,202 -151,410 -296,614 -667,936 -1733,901 -1733,901 -303,11 -2116,-324 -2116,-2116 0,-1792 1566,-2117 2116,-2117 551,0 678,755 134,628 -543,-127 -1086,-162 -1390,176 -303,339 -550,854 -197,1066 353,211 712,-353 670,-501 -42,-148 169,-261 219,-64 49,198 -21,621 -21,621 0,0 395,-49 395,261 0,311 -151,421 -151,421 0,0 285,108 652,-75 115,-58 203,-117 270,-178 -38,-8 -81,-17 -132,-29 66,-9 125,-16 177,-16 23,-26 43,-52 59,-78 -103,-28 -206,-46 -264,-40 89,-49 198,-49 297,-24 33,-80 41,-165 30,-256 -28,-240 -423,-381 -423,-381 0,0 480,-85 691,99z"/>
 </g>
</svg>
