<?xml version="1.0" encoding="UTF-8"?>
<!DOCTYPE svg PUBLIC "-//W3C//DTD SVG 1.1//EN" "http://www.w3.org/Graphics/SVG/1.1/DTD/svg11.dtd">
<!-- Creator: CorelDRAW X8 -->
<svg xmlns="http://www.w3.org/2000/svg" xml:space="preserve" width="182.88mm" height="325.12mm" version="1.1" style="shape-rendering:geometricPrecision; text-rendering:geometricPrecision; image-rendering:optimizeQuality; fill-rule:evenodd; clip-rule:evenodd"
viewBox="0 0 18288 32512"
 xmlns:xlink="http://www.w3.org/1999/xlink">
 <defs>
  <style type="text/css">
   <![CDATA[
    .str3 {stroke:black;stroke-width:84.66}
    .str2 {stroke:black;stroke-width:84.66}
    .str0 {stroke:white;stroke-width:135.46;stroke-linecap:round}
    .str1 {stroke:white;stroke-width:135.46;stroke-linecap:round}
    .str4 {stroke:black;stroke-width:84.66;stroke-linecap:round;stroke-linejoin:round}
    .fil2 {fill:none}
    .fil1 {fill:black}
    .fil12 {fill:blue}
    .fil10 {fill:#003399}
    .fil7 {fill:#003F00}
    .fil8 {fill:#CCCCCC}
    .fil4 {fill:#FF0027}
    .fil14 {fill:#FF0027}
    .fil9 {fill:fuchsia}
    .fil11 {fill:#FF6600}
    .fil6 {fill:#FFC000}
    .fil5 {fill:#FFDD00}
    .fil3 {fill:white}
    .fil13 {fill:black;fill-rule:nonzero}
    .fil15 {fill:#FF0027;fill-rule:nonzero}
    .fil0 {fill:url(#id0)}
   ]]>
  </style>
  <linearGradient id="id0" gradientUnits="userSpaceOnUse" x1="9144" y1="2794" x2="9144" y2="32512">
   <stop offset="0" style="stop-opacity:1; stop-color:#FF0025"/>
   <stop offset="0.74902" style="stop-opacity:1; stop-color:#FF004F"/>
   <stop offset="1" style="stop-opacity:1; stop-color:#FF0079"/>
  </linearGradient>
 </defs>
 <g id="Warstwa_x0020_1">
  <metadata id="CorelCorpID_0Corel-Layer"/>
  <polygon class="fil0" points="0,2794 18288,2794 18288,32512 0,32512 "/>
  <polygon class="fil1" points="0,-5 18288,-5 18288,2799 0,2799 "/>
  <g id="_2806696681168">
   <path class="fil2 str0" d="M16506 765c243,0 441,197 441,440 0,244 -198,441 -441,441 -244,0 -441,-197 -441,-441 0,-243 197,-440 441,-440z"/>
   <line class="fil2 str0" x1="17336" y1="2009" x2="16822" y2= "1512" />
  </g>
  <g id="_2806696678384">
   <line class="fil2 str1" x1="929" y1="1016" x2="2300" y2= "1016" />
   <line class="fil2 str1" x1="929" y1="1397" x2="2300" y2= "1397" />
   <line class="fil2 str1" x1="929" y1="1397" x2="2300" y2= "1397" />
   <line class="fil2 str1" x1="929" y1="1778" x2="2300" y2= "1778" />
  </g>
  <path class="fil3" d="M1270 3556l15748 0c466,0 847,381 847,847l0 1693c0,466 -381,847 -847,847l-15748 0c-466,0 -847,-381 -847,-847l0 -1693c0,-466 381,-847 847,-847z"/>
  <path class="fil3" d="M1270 7789l15748 0c466,0 847,381 847,847l0 1693c0,466 -381,847 -847,847l-15748 0c-466,0 -847,-381 -847,-847l0 -1693c0,-466 381,-847 847,-847z"/>
  <path class="fil3" d="M1270 12023l15748 0c466,0 847,381 847,846l0 1694c0,465 -381,846 -847,846l-15748 0c-466,0 -847,-381 -847,-846l0 -1694c0,-465 381,-846 847,-846z"/>
  <path class="fil3" d="M1270 16256l15748 0c466,0 847,381 847,847l0 1693c0,466 -381,847 -847,847l-15748 0c-466,0 -847,-381 -847,-847l0 -1693c0,-466 381,-847 847,-847z"/>
  <path class="fil3" d="M1270 20489l15748 0c466,0 847,381 847,847l0 1693c0,466 -381,847 -847,847l-15748 0c-466,0 -847,-381 -847,-847l0 -1693c0,-466 381,-847 847,-847z"/>
  <path class="fil3" d="M1270 24723l15748 0c466,0 847,381 847,846l0 1694c0,465 -381,846 -847,846l-15748 0c-466,0 -847,-381 -847,-846l0 -1694c0,-465 381,-846 847,-846z"/>
  <path class="fil3" d="M1270 28956l15748 0c466,0 847,381 847,847l0 1693c0,466 -381,847 -847,847l-15748 0c-466,0 -847,-381 -847,-847l0 -1693c0,-466 381,-847 847,-847z"/>
  <g id="_2806696672112">
   <path class="fil4 str2" d="M14192 5103l-79 -42 53 -53 -53 -19 36 -34 -36 -54 14 -256 -26 -13 28 -8 -18 -11 17 -8c0,0 103,-473 134,-522 31,-50 26,-104 26,-104l64 44 23 -19 -5 24 20 -7 -5 17 19 -5 0 22 44 -22 29 39c0,0 222,104 306,189 85,85 156,147 156,147l30 -21 -4 36 21 -7 15 42 34 -27 17 9 17 -26 32 29 26 -27 29 9 46 -28 77 46 32 -27 25 19 36 -34 66 59 31 -12 17 21 49 -12c0,0 7,10 12,12 5,3 29,-75 29,-75 0,0 58,-36 63,-34 5,3 143,-148 291,-223 148,-75 235,-109 235,-109l8 -20 7 17 16 -2 13 5 22 -15 1 10 11 -2 2 17 25 -3 8 20 21 -20 7 32c0,0 95,309 97,456 2,146 5,446 5,446l17 -7 -12 22 39 9 -42 54 49 17 -56 36 51 20 -7 27 26 33 -10 21 27 -9 -12 22 32 3 -15 24 25 14 -54 73 58 170 -34 34 165 160 -237 112 63 121 -117 5 0 68 -79 8 7 123 -98 24c0,0 -331,366 -927,366 -596,0 -870,-330 -870,-330l-85 0 -21 -122 -52 8 13 -63 -149 -14 82 -102 -276 -102 180 -140 -151 -64 102 -155 -77 -126 62 -44 167 -162z"/>
   <path class="fil1" d="M15001 6059c0,0 -3,-268 268,-268 270,0 270,266 270,266 0,0 3,40 -58,40 -60,0 -359,3 -359,3 0,0 -5,0 -63,0 -58,0 -58,-41 -58,-41z"/>
   <path class="fil1" d="M15273 5737c0,0 -214,-92 -214,-191 0,-98 165,-111 165,-111l97 0c0,0 160,18 160,111 0,94 -208,191 -208,191z"/>
   <polygon class="fil1" points="15224,5711 15224,5825 15321,5835 15321,5673 "/>
   <path class="fil1" d="M14814 5269c0,0 108,49 148,66 40,18 28,45 28,45 0,0 -89,215 -283,128 -193,-86 -94,-296 -94,-296 0,0 15,-25 53,-8 38,17 148,65 148,65z"/>
   <path class="fil1" d="M15714 5260c0,0 110,-45 150,-62 40,-16 51,11 51,11 0,0 95,212 -101,293 -197,81 -280,-136 -280,-136 0,0 -9,-28 30,-44 39,-16 150,-62 150,-62z"/>
   <path class="fil1" d="M15794 5637l212 -27c26,-4 51,15 54,42l0 0c4,26 -15,51 -42,54l-211 27c-27,4 -51,-15 -55,-41l0 0c-3,-27 16,-51 42,-55z"/>
   <path class="fil1" d="M14715 5638l-212 -27c-26,-4 -50,15 -54,42l0 0c-3,26 16,51 42,54l212 27c26,4 51,-15 54,-41l0 0c3,-27 -15,-51 -42,-55z"/>
   <path class="fil1" d="M14723 5910l-209 45c-26,6 -52,-11 -58,-37l0 0c-6,-26 11,-52 37,-57l209 -46c26,-6 52,11 58,37l0 0c5,26 -11,52 -37,58z"/>
   <path class="fil1" d="M15789 5906l208 45c26,6 52,-10 58,-37l0 0c6,-26 -11,-52 -37,-57l-209 -46c-26,-6 -52,11 -57,37l0 0c-6,26 11,52 37,58z"/>
   <polyline class="fil2 str3" points="14404,4055 14414,4130 14394,4169 14438,4183 14443,4246 14482,4261 14443,4324 14511,4348 14501,4397 14550,4392 14550,4479 14584,4489 14584,4562 14622,4562 14647,4615 14598,4659 14589,4707 14550,4722 14593,4746 14550,4790 14579,4819 14438,4950 "/>
   <path class="fil2 str3" d="M16258 4037l-64 68 25 59 -49 -10 -29 56 56 29 -87 14 -51 -17 19 49 56 12 39 39 -68 5 -39 -27 7 78 -39 43 0 59 -58 19 68 63c0,0 -44,24 -53,29 -10,5 -68,5 -68,5l43 58 73 83 -48 48 58 97 78 59"/>
  </g>
  <g id="_2806544077728">
   <path class="fil5 str4" d="M16406 9313c0,0 375,1440 -1122,1440 -1498,0 -1126,-1440 -1126,-1440 0,0 -50,-324 -35,-482 15,-159 65,-368 94,-457 30,-89 53,-186 159,-154 107,32 204,60 343,174 139,114 273,284 273,284 0,0 104,-41 292,-41 187,0 286,42 286,42 0,0 235,-285 394,-360 159,-74 253,-138 318,-89 64,50 164,447 164,620 0,174 -40,463 -40,463z"/>
   <path class="fil1" d="M15006 10058c0,0 -3,274 274,274 276,0 276,-273 276,-273 0,0 3,-40 -59,-40 -62,-1 -367,-3 -367,-3 0,0 -5,0 -65,0 -59,0 -59,42 -59,42z"/>
   <path class="fil1" d="M15284 9961c0,0 -219,-94 -219,-195 0,-101 169,-114 169,-114l99 0c0,0 164,18 164,114 0,96 -213,195 -213,195z"/>
   <polygon class="fil1" points="15234,9935 15234,10051 15333,10061 15333,9896 "/>
   <path class="fil1" d="M14789 9677c0,0 -120,-20 -164,-28 -44,-7 -39,-37 -39,-37 0,0 33,-235 247,-199 214,36 168,270 168,270 0,0 -7,29 -49,22 -43,-7 -163,-28 -163,-28z"/>
   <path class="fil1" d="M15756 9673c0,0 -120,18 -164,25 -45,7 -49,-23 -49,-23 0,0 -42,-234 172,-267 215,-33 245,203 245,203 0,0 2,30 -41,37 -42,6 -163,25 -163,25z"/>
   <path class="fil1" d="M15817 9859l217 -28c27,-4 52,16 55,43l0 0c4,27 -16,52 -43,55l-216 28c-27,4 -52,-16 -56,-43l0 0c-3,-27 16,-52 43,-55z"/>
   <path class="fil1" d="M14713 9860l-216 -28c-27,-4 -52,16 -56,43l0 0c-3,27 16,52 43,55l217 28c27,4 52,-15 55,-43l0 0c4,-27 -16,-52 -43,-55z"/>
   <path class="fil1" d="M14721 10138l-213 46c-27,6 -54,-11 -60,-38l0 0c-5,-26 12,-53 38,-59l214 -46c26,-6 53,11 59,37l0 0c6,27 -12,54 -38,60z"/>
   <path class="fil1" d="M15811 10134l214 46c26,6 53,-11 59,-38l0 0c6,-26 -11,-53 -38,-59l-213 -46c-27,-6 -54,11 -59,37l0 0c-6,27 11,54 37,60z"/>
   <path class="fil2 str4" d="M14265 8256c0,0 191,118 290,302 99,183 114,254 114,254"/>
   <path class="fil2 str4" d="M14525 8885c0,0 436,-248 759,-248 322,0 814,253 814,253"/>
   <path class="fil2 str4" d="M16253 8216c0,0 -170,138 -224,242 -55,105 -140,337 -140,337"/>
   <path class="fil2 str4" d="M14158 9313c0,0 74,-125 134,-200"/>
   <path class="fil2 str4" d="M16406 9313c0,0 -65,-130 -129,-214"/>
  </g>
  <g id="_2806544173648">
   <path class="fil5 str4" d="M16406 13546c0,0 375,1440 -1122,1440 -1498,0 -1126,-1440 -1126,-1440 0,0 -50,-323 -35,-482 15,-159 65,-367 94,-457 30,-89 53,-186 159,-153 107,32 204,59 343,173 139,114 273,284 273,284 0,0 104,-41 292,-41 187,0 286,43 286,43 0,0 235,-286 394,-360 159,-75 253,-139 318,-90 64,50 164,447 164,621 0,173 -40,462 -40,462z"/>
   <path class="fil1" d="M15006 14291c0,0 -3,274 274,274 276,0 276,-273 276,-273 0,0 3,-40 -59,-40 -62,0 -367,-3 -367,-3 0,0 -5,0 -65,0 -59,0 -59,42 -59,42z"/>
   <path class="fil1" d="M15284 14194c0,0 -219,-94 -219,-195 0,-100 169,-114 169,-114l99 0c0,0 164,18 164,114 0,96 -213,195 -213,195z"/>
   <polygon class="fil1" points="15234,14168 15234,14284 15333,14295 15333,14129 "/>
   <path class="fil1" d="M14789 13911c0,0 -120,-21 -164,-28 -44,-8 -39,-37 -39,-37 0,0 33,-236 247,-200 214,37 169,270 169,270 0,0 -8,29 -50,22 -43,-7 -163,-27 -163,-27z"/>
   <path class="fil1" d="M15756 13906c0,0 -120,19 -164,26 -45,6 -49,-23 -49,-23 0,0 -42,-234 172,-267 215,-33 245,202 245,202 0,0 2,31 -41,37 -42,7 -163,25 -163,25z"/>
   <path class="fil1" d="M15817 14092l217 -28c27,-3 52,16 55,43l0 0c4,27 -16,52 -43,56l-216 28c-27,3 -52,-16 -56,-43l0 0c-3,-27 16,-52 43,-56z"/>
   <path class="fil1" d="M14713 14093l-216 -28c-27,-3 -52,16 -56,43l0 0c-3,27 16,52 43,56l217 28c27,3 52,-16 55,-43l0 0c4,-27 -16,-52 -43,-56z"/>
   <path class="fil1" d="M14721 14371l-213 47c-27,5 -54,-12 -60,-38l0 0c-5,-27 12,-54 38,-59l214 -47c26,-6 53,11 59,38l0 0c6,26 -11,53 -38,59z"/>
   <path class="fil1" d="M15811 14367l214 47c26,5 53,-12 59,-38l0 0c6,-27 -11,-54 -38,-59l-213 -47c-27,-6 -54,11 -59,38l0 0c-6,26 11,53 37,59z"/>
   <path class="fil2 str4" d="M14265 12489c0,0 191,118 290,302 99,184 114,254 114,254"/>
   <path class="fil2 str4" d="M14525 13119c0,0 436,-249 759,-249 322,0 814,253 814,253"/>
   <path class="fil2 str4" d="M16253 12449c0,0 -170,139 -224,243 -55,104 -140,336 -140,336"/>
   <path class="fil2 str4" d="M14158 13546c0,0 74,-125 134,-199"/>
   <path class="fil2 str4" d="M16406 13546c0,0 -65,-130 -129,-214"/>
  </g>
  <g id="_2806544197392">
   <path class="fil5 str4" d="M16406 17779c0,0 375,1440 -1122,1440 -1498,0 -1126,-1440 -1126,-1440 0,0 -50,-323 -35,-482 15,-159 65,-367 94,-456 30,-90 53,-186 159,-154 107,32 204,59 343,174 139,114 273,284 273,284 0,0 104,-41 292,-41 187,0 286,42 286,42 0,0 235,-285 394,-360 159,-74 253,-139 318,-89 64,49 164,446 164,620 0,174 -40,462 -40,462z"/>
   <path class="fil1" d="M15006 18524c0,0 -3,274 274,274 276,0 276,-272 276,-272 0,0 3,-40 -59,-41 -62,0 -367,-3 -367,-3 0,0 -5,0 -65,0 -59,0 -59,42 -59,42z"/>
   <path class="fil1" d="M15284 18427c0,0 -219,-94 -219,-194 0,-101 169,-114 169,-114l99 0c0,0 164,18 164,114 0,96 -213,194 -213,194z"/>
   <polygon class="fil1" points="15234,18401 15234,18517 15333,18528 15333,18362 "/>
   <path class="fil1" d="M14789 18144c0,0 -120,-20 -164,-28 -44,-7 -39,-37 -39,-37 0,0 33,-235 247,-199 214,36 169,269 169,269 0,0 -8,30 -50,22 -43,-7 -163,-27 -163,-27z"/>
   <path class="fil1" d="M15756 18140c0,0 -120,18 -164,25 -45,7 -49,-23 -49,-23 0,0 -42,-234 172,-267 215,-33 245,203 245,203 0,0 2,30 -41,36 -42,7 -163,26 -163,26z"/>
   <path class="fil1" d="M15817 18325l217 -28c27,-3 52,16 55,43l0 0c4,27 -16,52 -43,56l-216 28c-27,3 -52,-16 -56,-43l0 0c-3,-27 16,-52 43,-56z"/>
   <path class="fil1" d="M14713 18327l-216 -29c-27,-3 -52,16 -56,43l0 0c-3,27 16,52 43,56l217 28c27,3 52,-16 55,-43l0 0c4,-27 -16,-52 -43,-55z"/>
   <path class="fil1" d="M14721 18604l-213 47c-27,6 -54,-11 -60,-38l0 0c-5,-27 12,-53 38,-59l214 -47c26,-6 53,11 59,38l0 0c6,27 -11,53 -38,59z"/>
   <path class="fil1" d="M15811 18600l214 47c26,6 53,-11 59,-38l0 0c6,-27 -11,-53 -38,-59l-213 -47c-27,-6 -54,11 -59,38l0 0c-6,27 11,53 37,59z"/>
   <path class="fil2 str4" d="M14265 16723c0,0 191,118 290,301 99,184 114,255 114,255"/>
   <path class="fil2 str4" d="M14525 17352c0,0 436,-248 759,-248 322,0 814,253 814,253"/>
   <path class="fil2 str4" d="M16253 16682c0,0 -170,139 -224,243 -55,104 -140,336 -140,336"/>
   <path class="fil2 str4" d="M14158 17779c0,0 74,-124 134,-199"/>
   <path class="fil2 str4" d="M16406 17779c0,0 -65,-129 -129,-214"/>
  </g>
  <g id="_2806544188816">
   <path class="fil4 str2" d="M14192 22037l-79 -42 53 -54 -53 -19 36 -33 -36 -54 14 -257 -26 -13 28 -7 -18 -12 17 -7c0,0 103,-473 134,-523 31,-50 26,-103 26,-103l64 44 23 -20 -5 24 20 -7 -5 18 19 -6 0 22 44 -22 29 39c0,0 222,104 306,189 85,85 156,147 156,147l30 -21 -4 37 21 -8 15 42 34 -27 17 10 17 -27 32 30 26 -28 29 9 46 -28 77 47 32 -28 25 20 36 -34 66 58 31 -12 17 22 49 -12c0,0 7,9 12,12 5,2 29,-75 29,-75 0,0 58,-37 63,-34 5,2 143,-148 291,-224 148,-75 235,-109 235,-109l8 -19 7 17 16 -2 13 4 22 -14 1 10 11 -3 2 17 25 -3 8 20 21 -20 7 32c0,0 95,309 97,456 2,147 5,446 5,446l17 -7 -12 22 39 10 -42 53 49 17 -56 36 51 20 -7 27 26 33 -10 21 27 -8 -12 21 32 3 -15 24 25 15 -54 72 58 170 -34 34 165 160 -237 112 63 121 -117 5 0 68 -79 8 7 123 -98 24c0,0 -331,367 -927,367 -596,0 -870,-330 -870,-330l-85 0 -21 -123 -52 9 13 -64 -149 -14 82 -101 -276 -103 180 -140 -151 -64 102 -155 -77 -126 62 -43 167 -162z"/>
   <path class="fil1" d="M15001 22992c0,0 -3,-268 268,-268 270,0 270,267 270,267 0,0 3,39 -58,39 -60,0 -359,3 -359,3 0,0 -5,0 -63,0 -58,0 -58,-41 -58,-41z"/>
   <path class="fil1" d="M15273 22670c0,0 -214,-92 -214,-190 0,-99 165,-112 165,-112l97 0c0,0 160,18 160,112 0,94 -208,190 -208,190z"/>
   <polygon class="fil1" points="15224,22645 15224,22758 15321,22768 15321,22606 "/>
   <path class="fil1" d="M14814 22203c0,0 108,48 148,66 40,17 28,44 28,44 0,0 -89,215 -283,129 -193,-86 -94,-296 -94,-296 0,0 15,-26 53,-9 38,17 148,66 148,66z"/>
   <path class="fil1" d="M15714 22194c0,0 110,-46 150,-62 40,-17 51,10 51,10 0,0 95,213 -101,294 -197,81 -280,-137 -280,-137 0,0 -9,-28 30,-44 39,-16 150,-61 150,-61z"/>
   <path class="fil1" d="M15794 22571l212 -28c26,-3 51,15 54,42l0 0c4,26 -15,51 -42,54l-211 28c-27,3 -51,-16 -55,-42l0 0c-3,-27 16,-51 42,-54z"/>
   <path class="fil1" d="M14715 22572l-212 -28c-26,-3 -50,16 -54,42l0 0c-3,26 16,51 42,54l212 28c26,3 51,-16 54,-42l0 0c3,-27 -15,-51 -42,-54z"/>
   <path class="fil1" d="M14723 22843l-209 46c-26,5 -52,-11 -58,-37l0 0c-6,-26 11,-52 37,-58l209 -46c26,-5 52,11 58,37l0 0c5,26 -11,52 -37,58z"/>
   <path class="fil1" d="M15789 22839l208 46c26,6 52,-11 58,-37l0 0c6,-26 -11,-52 -37,-58l-209 -46c-26,-5 -52,11 -57,37l0 0c-6,26 11,52 37,58z"/>
   <polyline class="fil2 str3" points="14404,20988 14414,21063 14394,21102 14438,21116 14443,21180 14482,21194 14443,21257 14511,21281 14501,21330 14550,21325 14550,21412 14584,21422 14584,21495 14622,21495 14647,21548 14598,21592 14589,21640 14550,21655 14593,21679 14550,21723 14579,21752 14438,21883 "/>
   <path class="fil2 str3" d="M16258 20970l-64 69 25 58 -49 -10 -29 56 56 29 -87 15 -51 -17 19 48 56 12 39 39 -68 5 -39 -27 7 78 -39 44 0 58 -58 19 68 63c0,0 -44,25 -53,30 -10,4 -68,4 -68,4l43 59 73 82 -48 49 58 97 78 58"/>
  </g>
  <g id="_2806696655008">
   <path class="fil4 str2" d="M14192 30503l-79 -42 53 -53 -53 -19 36 -34 -36 -54 14 -256 -26 -13 28 -8 -18 -12 17 -7c0,0 103,-473 134,-523 31,-49 26,-103 26,-103l64 44 23 -19 -5 24 20 -7 -5 17 19 -5 0 22 44 -22 29 39c0,0 222,104 306,189 85,85 156,147 156,147l30 -21 -4 36 21 -7 15 42 34 -27 17 9 17 -26 32 29 26 -27 29 9 46 -28 77 46 32 -27 25 19 36 -34 66 59 31 -12 17 21 49 -12c0,0 7,10 12,12 5,3 29,-75 29,-75 0,0 58,-36 63,-34 5,3 143,-148 291,-223 148,-75 235,-109 235,-109l8 -20 7 17 16 -2 13 5 22 -15 1 10 11 -2 2 17 25 -3 8 20 21 -20 7 32c0,0 95,309 97,456 2,146 5,446 5,446l17 -7 -12 22 39 9 -42 54 49 17 -56 36 51 20 -7 27 26 33 -10 20 27 -8 -12 22 32 3 -15 24 25 14 -54 73 58 170 -34 34 165 160 -237 112 63 121 -117 5 0 68 -79 8 7 123 -98 24c0,0 -331,366 -927,366 -596,0 -870,-330 -870,-330l-85 0 -21 -122 -52 8 13 -63 -149 -14 82 -102 -276 -102 180 -140 -151 -64 102 -155 -77 -126 62 -44 167 -162z"/>
   <path class="fil1" d="M15001 31459c0,0 -3,-268 268,-268 270,0 270,266 270,266 0,0 3,40 -58,40 -60,0 -359,3 -359,3 0,0 -5,0 -63,0 -58,0 -58,-41 -58,-41z"/>
   <path class="fil1" d="M15273 31137c0,0 -214,-92 -214,-191 0,-98 165,-111 165,-111l97 0c0,0 160,18 160,111 0,94 -208,191 -208,191z"/>
   <polygon class="fil1" points="15224,31111 15224,31225 15321,31235 15321,31073 "/>
   <path class="fil1" d="M14814 30669c0,0 108,49 148,66 40,18 28,45 28,45 0,0 -89,215 -283,128 -193,-86 -94,-296 -94,-296 0,0 15,-25 53,-8 38,17 148,65 148,65z"/>
   <path class="fil1" d="M15714 30660c0,0 110,-45 150,-62 40,-16 51,11 51,11 0,0 95,212 -101,293 -197,81 -280,-136 -280,-136 0,0 -9,-28 30,-44 39,-16 150,-62 150,-62z"/>
   <path class="fil1" d="M15794 31037l212 -27c26,-4 51,15 54,42l0 0c4,26 -15,51 -42,54l-211 27c-27,4 -51,-15 -55,-41l0 0c-3,-27 16,-51 42,-55z"/>
   <path class="fil1" d="M14715 31038l-212 -27c-26,-4 -50,15 -54,42l0 0c-3,26 16,51 42,54l212 27c26,4 51,-15 54,-41l0 0c3,-27 -15,-51 -42,-55z"/>
   <path class="fil1" d="M14723 31310l-209 45c-26,6 -52,-11 -58,-37l0 0c-6,-26 11,-52 37,-57l209 -46c26,-6 52,11 58,37l0 0c5,26 -11,52 -37,58z"/>
   <path class="fil1" d="M15789 31306l208 45c26,6 52,-10 58,-37l0 0c6,-26 -11,-52 -37,-57l-209 -46c-26,-6 -52,11 -57,37l0 0c-6,26 11,52 37,58z"/>
   <polyline class="fil2 str3" points="14404,29455 14414,29530 14394,29569 14438,29583 14443,29646 14482,29661 14443,29724 14511,29748 14501,29797 14550,29792 14550,29879 14584,29889 14584,29962 14622,29962 14647,30015 14598,30059 14589,30107 14550,30122 14593,30146 14550,30190 14579,30219 14438,30350 "/>
   <path class="fil2 str3" d="M16258 29437l-64 68 25 59 -49 -10 -29 56 56 29 -87 14 -51 -17 19 49 56 12 39 39 -68 5 -39 -27 7 78 -39 43 0 59 -58 19 68 63c0,0 -44,24 -53,29 -10,5 -68,5 -68,5l43 58 73 83 -48 48 58 97 78 59"/>
  </g>
  <g id="_2806696649600">
   <path class="fil5 str4" d="M16406 26246c0,0 375,1440 -1122,1440 -1498,0 -1126,-1440 -1126,-1440 0,0 -50,-323 -35,-482 15,-159 65,-367 94,-457 30,-89 53,-186 159,-153 107,32 204,59 343,173 139,114 273,284 273,284 0,0 104,-41 292,-41 187,0 286,43 286,43 0,0 235,-286 394,-360 159,-75 253,-139 318,-90 64,50 164,447 164,621 0,173 -40,462 -40,462z"/>
   <path class="fil1" d="M15006 26991c0,0 -3,274 274,274 276,0 276,-273 276,-273 0,0 3,-40 -59,-40 -62,0 -367,-3 -367,-3 0,0 -5,0 -65,0 -59,0 -59,42 -59,42z"/>
   <path class="fil1" d="M15284 26894c0,0 -219,-94 -219,-195 0,-100 169,-114 169,-114l99 0c0,0 164,18 164,114 0,96 -213,195 -213,195z"/>
   <polygon class="fil1" points="15234,26868 15234,26984 15333,26995 15333,26829 "/>
   <path class="fil1" d="M14789 26611c0,0 -120,-21 -164,-28 -44,-8 -39,-37 -39,-37 0,0 33,-236 247,-200 214,37 169,270 169,270 0,0 -8,29 -50,22 -43,-7 -163,-27 -163,-27z"/>
   <path class="fil1" d="M15756 26606c0,0 -120,19 -164,26 -45,6 -49,-23 -49,-23 0,0 -42,-234 172,-267 215,-33 245,202 245,202 0,0 2,31 -41,37 -42,7 -163,25 -163,25z"/>
   <path class="fil1" d="M15817 26792l217 -28c27,-3 52,16 55,43l0 0c4,27 -16,52 -43,56l-216 28c-27,3 -52,-16 -56,-43l0 0c-3,-27 16,-52 43,-56z"/>
   <path class="fil1" d="M14713 26793l-216 -28c-27,-3 -52,16 -56,43l0 0c-3,27 16,52 43,56l217 28c27,3 52,-16 55,-43l0 0c4,-27 -16,-52 -43,-56z"/>
   <path class="fil1" d="M14721 27071l-213 47c-27,5 -54,-12 -60,-38l0 0c-5,-27 12,-54 38,-59l214 -47c26,-6 53,11 59,38l0 0c6,26 -11,53 -38,59z"/>
   <path class="fil1" d="M15811 27067l214 47c26,5 53,-12 59,-38l0 0c6,-27 -11,-54 -38,-59l-213 -47c-27,-6 -54,11 -59,38l0 0c-6,26 11,53 37,59z"/>
   <path class="fil2 str4" d="M14265 25189c0,0 191,118 290,302 99,184 114,254 114,254"/>
   <path class="fil2 str4" d="M14525 25819c0,0 436,-249 759,-249 322,0 814,253 814,253"/>
   <path class="fil2 str4" d="M16253 25149c0,0 -170,139 -224,243 -55,104 -140,336 -140,336"/>
   <path class="fil2 str4" d="M14158 26246c0,0 74,-125 134,-199"/>
   <path class="fil2 str4" d="M16406 26246c0,0 -65,-130 -129,-214"/>
  </g>
  <path class="fil6" d="M3006 8213c701,0 1270,568 1270,1270 0,701 -569,1270 -1270,1270 -702,0 -1270,-569 -1270,-1270 0,-702 568,-1270 1270,-1270z"/>
  <path class="fil7" d="M3006 12446c701,0 1270,569 1270,1270 0,701 -569,1270 -1270,1270 -702,0 -1270,-569 -1270,-1270 0,-701 568,-1270 1270,-1270z"/>
  <path class="fil8" d="M3006 16679c701,0 1270,569 1270,1270 0,702 -569,1270 -1270,1270 -702,0 -1270,-568 -1270,-1270 0,-701 568,-1270 1270,-1270z"/>
  <path class="fil9" d="M3006 20913c701,0 1270,568 1270,1270 0,701 -569,1270 -1270,1270 -702,0 -1270,-569 -1270,-1270 0,-702 568,-1270 1270,-1270z"/>
  <path class="fil10" d="M3006 25146c701,0 1270,569 1270,1270 0,701 -569,1270 -1270,1270 -702,0 -1270,-569 -1270,-1270 0,-701 568,-1270 1270,-1270z"/>
  <path class="fil11" d="M3006 29379c701,0 1270,569 1270,1270 0,702 -569,1270 -1270,1270 -702,0 -1270,-568 -1270,-1270 0,-701 568,-1270 1270,-1270z"/>
  <path class="fil12" d="M3006 3979c701,0 1270,569 1270,1270 0,702 -569,1270 -1270,1270 -702,0 -1270,-568 -1270,-1270 0,-701 568,-1270 1270,-1270z"/>
  <path class="fil13" d="M5376 5516l-420 0 -95 262 -136 0 383 -1003 116 0 383 1003 -135 0 -96 -262zm-380 -109l341 0 -171 -469 -170 469zm865 371l-127 0 0 -1058 127 0 0 1058zm343 0l-128 0 0 -745 128 0 0 745zm-138 -943c0,-21 6,-38 19,-53 13,-14 31,-21 56,-21 25,0 44,7 57,21 12,15 19,32 19,53 0,21 -7,38 -19,52 -13,14 -32,21 -57,21 -25,0 -43,-7 -56,-21 -13,-14 -19,-31 -19,-52zm640 853c46,0 86,-14 119,-41 35,-28 53,-62 57,-104l121 0c-3,43 -17,84 -44,123 -28,38 -64,69 -109,92 -45,23 -93,34 -144,34 -101,0 -182,-34 -242,-101 -60,-68 -90,-161 -90,-279l0 -21c0,-72 14,-137 40,-193 27,-57 65,-101 115,-132 50,-31 109,-47 177,-47 83,0 153,25 208,75 55,50 85,115 89,195l-121 0c-4,-48 -22,-88 -55,-119 -33,-31 -73,-47 -121,-47 -65,0 -115,24 -151,70 -35,47 -53,114 -53,203l0 24c0,86 17,152 53,198 35,47 86,70 151,70zm572 -655l0 831c0,143 -65,215 -195,215 -28,0 -54,-4 -78,-13l0 -101c15,3 34,5 58,5 28,0 50,-8 65,-23 15,-15 23,-42 23,-80l0 -834 127 0zm-140 -198c0,-20 6,-38 18,-52 13,-15 32,-22 56,-22 25,0 44,7 56,21 13,15 20,32 20,53 0,21 -7,38 -20,52 -12,14 -31,21 -56,21 -25,0 -43,-7 -56,-21 -12,-14 -18,-31 -18,-52zm806 943c-8,-14 -14,-40 -18,-78 -60,62 -130,92 -212,92 -74,0 -134,-20 -181,-62 -47,-42 -71,-94 -71,-158 0,-78 30,-138 89,-181 59,-43 142,-64 249,-64l124 0 0 -59c0,-44 -14,-80 -40,-106 -27,-27 -66,-40 -118,-40 -46,0 -84,12 -115,34 -30,23 -46,51 -46,84l-128 0c0,-38 13,-74 40,-108 26,-35 62,-62 107,-83 46,-20 95,-30 150,-30 85,0 153,21 201,64 49,43 74,103 76,178l0 343c0,68 9,123 26,163l0 11 -133 0zm-212 -94c40,0 78,-11 114,-32 36,-20 62,-48 78,-81l0 -154 -100 0c-156,0 -234,46 -234,138 0,40 13,72 39,95 27,22 61,34 103,34z"/>
  <path class="fil13" d="M4822 10012l0 -1004 328 0c109,0 191,23 246,68 55,45 82,112 82,200 0,47 -13,89 -40,125 -26,36 -63,64 -109,83 55,16 97,44 129,87 31,42 47,93 47,151 0,91 -29,161 -88,212 -58,52 -140,78 -247,78l-348 0zm133 -468l0 359 218 0c61,0 110,-16 146,-48 35,-31 53,-75 53,-131 0,-120 -66,-180 -197,-180l-220 0zm0 -108l199 0c58,0 104,-15 139,-44 35,-29 52,-68 52,-117 0,-56 -16,-96 -48,-120 -32,-26 -81,-38 -147,-38l-195 0 0 319zm1186 576c-7,-15 -13,-41 -18,-79 -59,62 -130,93 -212,93 -74,0 -134,-21 -181,-63 -47,-41 -71,-94 -71,-158 0,-77 30,-138 89,-181 59,-43 142,-64 249,-64l124 0 0 -59c0,-44 -13,-80 -40,-106 -27,-26 -66,-40 -118,-40 -45,0 -83,12 -114,35 -31,23 -46,51 -46,83l-128 0c0,-37 13,-73 39,-108 27,-35 62,-62 108,-82 45,-21 95,-31 149,-31 86,0 153,22 202,65 48,43 74,102 75,177l0 343c0,69 9,123 27,163l0 12 -134 0zm-212 -95c40,0 78,-10 114,-31 36,-21 62,-48 78,-81l0 -155 -100 0c-156,0 -234,46 -234,139 0,40 13,71 40,94 26,23 61,34 102,34zm879 -537c-19,-3 -40,-5 -62,-5 -84,0 -141,36 -171,107l0 530 -127 0 0 -746 124 0 2 86c42,-66 101,-100 178,-100 25,0 44,4 56,10l0 118zm326 -294l0 180 139 0 0 99 -139 0 0 462c0,30 6,53 18,68 12,14 34,22 63,22 15,0 35,-3 61,-8l0 103c-34,9 -66,14 -98,14 -57,0 -100,-18 -129,-52 -29,-34 -43,-83 -43,-147l0 -462 -136 0 0 -99 136 0 0 -180 128 0zm239 546c0,-73 15,-139 44,-197 28,-58 68,-103 119,-135 52,-32 110,-48 176,-48 101,0 183,35 246,106 63,70 94,164 94,280l0 9c0,73 -14,138 -42,196 -27,57 -67,102 -119,134 -51,33 -111,49 -178,49 -101,0 -183,-35 -245,-106 -63,-70 -95,-163 -95,-279l0 -9zm129 15c0,83 19,149 57,199 38,50 90,75 154,75 65,0 116,-25 154,-76 38,-51 58,-122 58,-213 0,-82 -20,-148 -59,-199 -38,-51 -90,-76 -154,-76 -63,0 -114,25 -152,75 -39,50 -58,122 -58,215zm1145 167c0,-35 -13,-61 -40,-80 -25,-19 -71,-36 -135,-50 -65,-13 -116,-30 -154,-49 -38,-20 -66,-42 -84,-69 -18,-27 -27,-58 -27,-95 0,-61 26,-113 77,-155 52,-42 118,-64 199,-64 84,0 153,22 205,66 53,43 79,99 79,167l-128 0c0,-35 -15,-65 -44,-90 -30,-26 -67,-38 -112,-38 -47,0 -83,10 -109,30 -27,20 -40,47 -40,79 0,31 13,54 37,70 24,16 68,31 132,45 64,14 115,31 155,51 39,19 68,43 87,71 19,28 29,62 29,102 0,67 -27,120 -80,160 -53,40 -122,61 -207,61 -60,0 -113,-11 -159,-32 -46,-21 -82,-51 -108,-89 -25,-37 -39,-79 -39,-123l128 0c2,43 19,77 51,102 32,25 74,37 127,37 48,0 87,-9 116,-29 29,-19 44,-46 44,-78zm413 93l436 0 0 105 -592 0 0 -95 411 -545 -405 0 0 -106 565 0 0 91 -415 550z"/>
  <path class="fil13" d="M5560 13927c-12,106 -51,188 -117,245 -66,58 -154,87 -263,87 -119,0 -214,-43 -285,-127 -71,-86 -107,-199 -107,-342l0 -96c0,-94 16,-176 50,-247 33,-70 80,-125 141,-163 61,-37 132,-57 212,-57 107,0 193,30 257,90 64,59 102,141 112,247l-133 0c-11,-80 -36,-138 -74,-174 -39,-36 -93,-54 -162,-54 -84,0 -150,31 -198,94 -48,62 -72,151 -72,267l0 97c0,109 23,195 68,260 46,64 109,96 191,96 73,0 130,-16 169,-50 39,-33 65,-91 78,-173l133 0zm281 213l436 0 0 105 -592 0 0 -94 411 -545 -405 0 0 -106 565 0 0 90 -415 550zm1039 105c-7,-15 -13,-41 -18,-78 -59,61 -130,92 -212,92 -73,0 -134,-21 -181,-62 -47,-42 -70,-95 -70,-158 0,-78 29,-138 88,-181 59,-43 142,-65 249,-65l124 0 0 -58c0,-45 -13,-80 -39,-107 -27,-26 -67,-39 -118,-39 -46,0 -84,11 -115,34 -31,23 -46,51 -46,83l-128 0c0,-37 13,-73 39,-108 27,-34 63,-62 108,-82 45,-20 95,-30 149,-30 86,0 153,21 202,64 49,43 74,102 76,177l0 344c0,68 9,122 26,163l0 11 -134 0zm-211 -95c40,0 78,-10 113,-31 36,-21 62,-48 78,-81l0 -154 -99 0c-157,0 -235,46 -235,138 0,40 14,72 40,94 27,23 61,34 103,34zm879 -537c-20,-3 -40,-5 -63,-5 -84,0 -140,36 -170,107l0 530 -128 0 0 -745 124 0 3 86c41,-67 101,-100 177,-100 25,0 44,3 57,9l0 118zm414 646c-101,0 -184,-33 -247,-100 -63,-66 -95,-155 -95,-266l0 -23c0,-74 14,-140 42,-199 29,-58 68,-103 119,-136 51,-33 106,-49 165,-49 97,0 172,32 226,95 54,64 81,156 81,275l0 53 -506 0c2,73 24,133 65,178 41,45 93,68 157,68 45,0 83,-10 114,-28 31,-18 59,-43 82,-73l78 61c-63,96 -156,144 -281,144zm-16 -669c-52,0 -95,19 -130,57 -34,37 -56,90 -64,158l373 0 0 -10c-4,-65 -21,-116 -52,-151 -32,-36 -74,-54 -127,-54zm662 310l-80 83 0 262 -127 0 0 -1058 127 0 0 640 68 -82 232 -245 156 0 -291 311 324 434 -149 0 -260 -345z"/>
  <path class="fil13" d="M4822 18478l0 -1003 283 0c88,0 165,19 232,58 67,38 119,93 155,164 37,72 55,153 56,246l0 64c0,94 -19,177 -55,249 -37,71 -89,126 -156,164 -68,38 -147,57 -237,58l-278 0zm133 -894l0 786 139 0c102,0 181,-32 238,-95 57,-64 85,-154 85,-271l0 -59c0,-114 -27,-202 -80,-265 -54,-64 -130,-95 -228,-96l-154 0zm1233 894c-7,-14 -13,-40 -18,-78 -59,62 -130,92 -212,92 -74,0 -134,-20 -181,-62 -47,-42 -71,-94 -71,-158 0,-78 30,-138 89,-181 59,-43 142,-64 249,-64l124 0 0 -59c0,-44 -13,-80 -40,-106 -27,-27 -66,-40 -118,-40 -45,0 -83,12 -114,34 -31,23 -46,51 -46,84l-128 0c0,-38 13,-74 39,-108 27,-35 62,-62 108,-83 45,-20 95,-30 149,-30 86,0 153,21 202,64 48,43 74,103 75,178l0 343c0,68 9,123 27,163l0 11 -134 0zm-212 -94c40,0 78,-11 114,-32 36,-20 62,-48 78,-81l0 -154 -100 0c-156,0 -234,46 -234,138 0,40 13,72 40,95 27,22 61,34 102,34zm879 -537c-19,-4 -40,-5 -62,-5 -84,0 -141,35 -170,107l0 529 -128 0 0 -745 124 0 2 86c42,-67 101,-100 178,-100 25,0 44,3 56,10l0 118zm256 631l-127 0 0 -745 127 0 0 745zm-137 -943c0,-21 6,-38 18,-53 13,-14 32,-21 57,-21 25,0 43,7 56,21 13,15 19,32 19,53 0,21 -6,38 -19,52 -13,14 -31,21 -56,21 -25,0 -44,-7 -57,-21 -12,-14 -18,-31 -18,-52zm801 943c-7,-14 -13,-40 -17,-78 -60,62 -131,92 -213,92 -73,0 -133,-20 -180,-62 -47,-42 -71,-94 -71,-158 0,-78 29,-138 88,-181 59,-43 142,-64 249,-64l124 0 0 -59c0,-44 -13,-80 -39,-106 -27,-27 -66,-40 -118,-40 -46,0 -84,12 -115,34 -31,23 -46,51 -46,84l-128 0c0,-38 13,-74 40,-108 26,-35 62,-62 107,-83 45,-20 95,-30 149,-30 86,0 153,21 202,64 49,43 74,103 76,178l0 343c0,68 9,123 26,163l0 11 -134 0zm-211 -94c40,0 78,-11 114,-32 36,-20 61,-48 77,-81l0 -154 -99 0c-156,0 -235,46 -235,138 0,40 14,72 40,95 27,22 61,34 103,34z"/>
  <path class="fil13" d="M5563 31047c-34,49 -82,85 -142,109 -61,24 -132,36 -213,36 -82,0 -154,-19 -218,-57 -63,-39 -112,-93 -147,-164 -34,-71 -52,-153 -53,-246l0 -88c0,-151 35,-268 106,-351 70,-84 169,-125 297,-125 105,0 189,27 253,80 64,54 103,130 117,228l-132 0c-25,-133 -104,-200 -237,-200 -89,0 -156,31 -202,94 -46,62 -69,152 -69,271l0 82c0,112 25,202 77,268 51,66 121,100 209,100 49,0 93,-6 130,-17 37,-11 68,-29 92,-55l0 -225 -232 0 0 -108 364 0 0 368zm661 131c-8,-14 -14,-40 -18,-78 -59,62 -130,92 -212,92 -74,0 -134,-20 -181,-62 -47,-42 -71,-94 -71,-158 0,-78 30,-138 89,-181 59,-43 142,-64 249,-64l124 0 0 -59c0,-44 -14,-80 -40,-106 -27,-27 -66,-40 -118,-40 -46,0 -84,12 -114,34 -31,23 -47,51 -47,84l-128 0c0,-38 13,-74 40,-108 26,-35 62,-62 108,-83 45,-20 94,-30 149,-30 85,0 153,21 201,64 49,43 74,103 76,178l0 343c0,68 9,123 26,163l0 11 -133 0zm-212 -94c40,0 78,-11 114,-32 36,-20 62,-48 78,-81l0 -154 -100 0c-156,0 -234,46 -234,138 0,40 13,72 39,95 27,22 61,34 103,34zm1179 -81l143 -570 128 0 -217 745 -104 0 -181 -564 -176 564 -104 0 -216 -745 127 0 147 558 173 -558 103 0 177 570zm710 189c-101,0 -183,-33 -247,-99 -63,-67 -95,-155 -95,-267l0 -23c0,-74 14,-140 43,-198 28,-58 67,-104 118,-137 51,-33 106,-49 165,-49 97,0 172,32 226,96 54,64 81,155 81,274l0 53 -505 0c2,74 23,133 64,178 41,45 94,68 157,68 45,0 83,-9 114,-28 32,-18 59,-42 82,-72l78 60c-62,96 -156,144 -281,144zm-16 -669c-51,0 -94,19 -129,57 -35,38 -57,90 -65,158l373 0 0 -10c-3,-65 -21,-115 -52,-151 -31,-36 -74,-54 -127,-54zm608 57l109 -42 0 84 -109 42 0 514 -128 0 0 -465 -99 38 0 -85 99 -37 0 -509 128 0 0 460z"/>
  <path class="fil13" d="M5389 22249l-434 0 0 354 505 0 0 109 -638 0 0 -1004 631 0 0 109 -498 0 0 323 434 0 0 109zm575 -169c-19,-3 -40,-5 -62,-5 -84,0 -141,36 -171,107l0 530 -127 0 0 -746 124 0 2 86c42,-66 101,-100 178,-100 25,0 44,4 56,10l0 118zm374 445l174 -559 136 0 -300 860c-46,124 -120,186 -221,186l-24 -2 -47 -9 0 -103 34 3c43,0 77,-9 101,-26 24,-18 44,-50 59,-96l29 -76 -266 -737 139 0 186 559zm632 -158l-80 83 0 262 -128 0 0 -1059 128 0 0 641 68 -82 232 -246 155 0 -290 312 324 434 -149 0 -260 -345z"/>
  <path class="fil13" d="M5376 26502l-421 0 0 443 -133 0 0 -1003 622 0 0 108 -489 0 0 343 421 0 0 109zm548 -189c-19,-3 -40,-5 -62,-5 -84,0 -141,36 -171,107l0 530 -127 0 0 -745 124 0 2 86c42,-67 101,-100 178,-100 25,0 44,3 56,9l0 118zm374 445l174 -558 136 0 -300 860c-46,124 -120,185 -221,185l-24 -2 -47 -9 0 -103 34 3c43,0 77,-9 101,-26 24,-18 44,-50 59,-96l29 -75 -266 -737 139 0 186 558zm384 -192c0,-114 27,-206 81,-276 54,-70 125,-104 213,-104 88,0 156,30 207,89l0 -388 128 0 0 1058 -117 0 -6 -80c-51,63 -122,94 -213,94 -87,0 -157,-35 -211,-106 -55,-71 -82,-163 -82,-277l0 -10zm127 15c0,84 18,150 53,198 35,48 83,71 144,71 81,0 140,-36 177,-108l0 -342c-38,-71 -96,-106 -175,-106 -63,0 -111,24 -146,73 -35,48 -53,119 -53,214zm1009 378c-101,0 -183,-33 -246,-100 -64,-66 -96,-155 -96,-266l0 -23c0,-74 15,-140 43,-199 28,-58 68,-103 118,-136 51,-33 106,-49 165,-49 97,0 173,32 226,95 54,64 81,156 81,275l0 53 -505 0c2,73 23,133 64,178 42,45 94,68 157,68 45,0 83,-10 115,-28 31,-18 58,-43 82,-73l77 61c-62,96 -156,144 -281,144zm-16 -669c-51,0 -94,19 -129,57 -35,37 -57,90 -65,158l374 0 0 -10c-4,-65 -21,-116 -53,-151 -31,-36 -73,-54 -127,-54zm814 23c-19,-3 -40,-5 -62,-5 -84,0 -141,36 -170,107l0 530 -128 0 0 -745 124 0 2 86c42,-67 101,-100 178,-100 25,0 44,3 56,9l0 118zm374 445l174 -558 136 0 -300 860c-46,124 -120,185 -221,185l-24 -2 -47 -9 0 -103 34 3c43,0 77,-9 101,-26 24,-18 44,-50 60,-96l28 -75 -266 -737 139 0 186 558zm632 -158l-80 83 0 262 -127 0 0 -1058 127 0 0 640 68 -82 232 -245 156 0 -291 311 324 434 -149 0 -260 -345z"/>
  <path class="fil3" d="M9146 2244c-122,4 -847,-130 -847,-847 0,-717 627,-847 847,-847 220,0 271,302 53,251 -217,-50 -434,-64 -556,71 -121,136 -220,342 -79,426 141,85 285,-141 268,-200 -17,-59 68,-105 88,-26 20,79 -9,249 -9,249 0,0 158,-20 158,104 0,124 -60,169 -60,169 0,0 114,43 261,-31 147,-73 186,-152 175,-248 -12,-96 -170,-152 -170,-152 0,0 192,-34 277,39 85,74 37,65 37,65 0,0 93,-37 166,-28 74,8 105,14 105,14 0,0 56,-68 65,-93 8,-25 10,-69 10,-69 0,0 171,418 -96,792 -267,375 -693,361 -693,361z"/>
  <g id="_2806696644736">
   <path class="fil3" d="M8404 1461c157,-3 242,6 358,-114 57,-58 99,133 40,192 -43,45 -79,53 -122,69 86,10 146,3 219,137 43,78 72,325 -35,362 112,-48 72,-362 -89,-455 -45,-26 -232,-16 -115,-62 108,-41 202,-108 122,-227 -116,120 -221,106 -378,98z"/>
  </g>
  <path class="fil2" d="M8404 1461c142,0 196,15 322,-61 64,-39 50,-111 92,32 48,164 -304,187 -132,184 134,-2 245,148 243,288 -1,49 11,183 -65,203"/>
  <g id="_2806696645120">
   <path class="fil3" d="M9270 1656c4,162 -48,97 -141,182 30,47 252,21 291,-129 -21,207 -315,201 -318,129 -3,-93 144,8 168,-182z"/>
  </g>
  <path class="fil2" d="M9270 1656c0,146 -49,88 -151,174 -36,31 181,108 292,-82 2,-2 9,-34 9,-39"/>
  <g id="_2806696641952">
   <path class="fil3" d="M9595 1870c-45,175 -315,135 -294,220 10,8 175,-20 260,0 -89,-7 -281,64 -285,1 -9,-128 252,-62 319,-221z"/>
  </g>
  <path class="fil2" d="M9595 1870c-40,158 -230,96 -292,187 -74,108 157,-1 258,33"/>
  <g id="_2806696641408">
   <path class="fil3" d="M9314 1427c88,-48 222,22 234,71 -19,-26 -178,-77 -234,-71z"/>
  </g>
  <path class="fil2" d="M9314 1427c92,-39 232,59 234,71"/>
  <g id="_2806696639840">
   <path class="fil3" d="M9325 1481c105,-15 163,-12 212,85 -82,-67 -107,-60 -212,-85z"/>
  </g>
  <path class="fil2" d="M9325 1481c97,0 161,11 212,85"/>
  <g id="_2806696640832">
   <path class="fil3" d="M9743 1540c121,-26 259,-60 355,59 -107,-76 -235,-52 -355,-59z"/>
  </g>
  <path class="fil2" d="M9743 1540c117,3 139,-49 295,22 14,7 52,24 60,37"/>
  <g id="_2806696639392">
   <path class="fil3" d="M9763 1591c74,-10 191,-10 237,65 -37,-26 -190,-52 -237,-65z"/>
  </g>
  <path class="fil2" d="M9763 1591c54,0 203,20 237,65"/>
  <path class="fil3" d="M9785 1400c-66,18 -26,96 33,79 50,-13 37,-98 -33,-79z"/>
  <path class="fil3" d="M9785 1400c70,-19 83,66 33,79 -59,17 -99,-61 -33,-79zm71 80c51,-141 -151,-119 -121,-25 3,8 18,27 28,33 39,22 66,5 93,-8z"/>
  <path class="fil3" d="M9553 1390c-14,30 -20,67 26,70 35,2 52,-16 52,-56 -22,-30 -50,-25 -78,-14z"/>
  <path class="fil3" d="M9553 1390c28,-11 56,-16 78,14 0,40 -17,58 -52,56 -46,-3 -40,-40 -26,-70zm-27 61c61,55 141,6 116,-59 -16,-42 -123,-49 -116,59z"/>
  <path class="fil3" d="M9663 1498c-13,34 -17,33 -43,33l-15 0c-1,0 -3,0 -5,1 26,19 45,17 67,-10 13,26 45,41 66,13 -43,7 -82,-12 -35,-61l-50 -4 12 23c1,1 2,3 3,5z"/>
  <g id="_2806696662496">
   <line class="fil2 str1" x1="6916" y1="2116" x2="6916" y2= "744" />
   <line class="fil2 str1" x1="7297" y1="2116" x2="7297" y2= "744" />
   <line class="fil2 str1" x1="7297" y1="2116" x2="7297" y2= "744" />
   <line class="fil2 str1" x1="7678" y1="2116" x2="7678" y2= "744" />
  </g>
  <polygon class="fil14" points="5561,1786 5280,1537 5116,1172 5280,1082 5132,691 4899,849 4926,1199 5174,1659 5518,1966 5794,2088 6032,1913 5704,1664 "/>
  <g id="_2806696660416">
   <polygon class="fil14" points="2413,843 3531,843 3531,1961 2413,1961 "/>
   <polygon class="fil14" points="3625,1406 4044,978 4044,1833 "/>
  </g>
  <polygon class="fil3" points="7933,363 414,363 414,3327 7933,3327 "/>
  <path class="fil15" d="M1312 864l0 409c0,57 -18,103 -53,139 -36,37 -84,57 -145,61l-21 1c-65,0 -118,-18 -157,-53 -39,-36 -59,-85 -60,-147l0 -410 79 0 0 407c0,44 12,78 36,102 24,24 58,36 102,36 45,0 80,-12 104,-36 23,-24 35,-58 35,-101l0 -408 80 0zm374 483c0,-21 -7,-37 -23,-48 -16,-11 -43,-21 -82,-30 -38,-8 -69,-18 -92,-29 -22,-12 -39,-26 -50,-42 -11,-16 -16,-35 -16,-57 0,-37 15,-68 46,-93 31,-25 71,-38 119,-38 51,0 92,13 123,39 32,27 48,60 48,101l-77 0c0,-21 -9,-39 -27,-55 -18,-15 -40,-22 -67,-22 -28,0 -50,6 -65,18 -16,12 -24,28 -24,47 0,19 7,33 22,42 15,10 41,19 79,27 38,9 69,19 93,31 24,12 41,26 53,43 11,16 17,37 17,61 0,40 -16,72 -48,96 -32,24 -74,36 -125,36 -36,0 -67,-6 -95,-19 -27,-13 -49,-30 -64,-53 -16,-23 -24,-47 -24,-74l77 0c1,26 11,46 31,61 19,15 44,22 75,22 29,0 53,-5 70,-17 18,-12 26,-27 26,-47zm280 -437l0 109 84 0 0 59 -84 0 0 277c0,18 4,31 11,40 8,9 20,14 38,14 9,0 21,-2 37,-5l0 62c-20,5 -40,8 -59,8 -34,0 -60,-10 -77,-31 -18,-21 -26,-50 -26,-88l0 -277 -82 0 0 -59 82 0 0 -109 76 0zm449 556c-4,-9 -8,-25 -11,-47 -35,37 -78,55 -127,55 -44,0 -80,-12 -109,-37 -28,-25 -42,-57 -42,-95 0,-47 18,-83 53,-109 36,-26 85,-38 150,-38l74 0 0 -35c0,-27 -8,-48 -24,-64 -16,-16 -40,-24 -71,-24 -27,0 -50,7 -68,20 -19,14 -28,31 -28,50l-77 0c0,-22 8,-43 24,-64 16,-21 37,-38 64,-50 28,-12 57,-18 90,-18 51,0 92,13 121,39 29,25 44,61 45,106l0 206c0,41 6,74 16,98l0 7 -80 0zm-127 -57c24,0 47,-6 68,-19 22,-12 37,-29 47,-49l0 -92 -60 0c-94,0 -140,27 -140,83 0,24 8,43 23,56 17,14 37,21 62,21zm707 -49l86 -341 77 0 -130 447 -62 0 -109 -339 -106 339 -62 0 -130 -447 76 0 88 334 104 -334 62 0 106 341zm324 106l-77 0 0 -447 77 0 0 447zm-83 -566c0,-13 4,-23 12,-32 7,-9 18,-13 33,-13 15,0 27,4 34,13 8,9 12,19 12,32 0,12 -4,22 -12,31 -7,8 -19,12 -34,12 -15,0 -26,-4 -33,-12 -8,-9 -12,-19 -12,-31zm391 574c-61,0 -110,-20 -148,-60 -38,-40 -57,-93 -57,-160l0 -14c0,-44 8,-84 25,-118 17,-35 41,-63 71,-82 31,-20 64,-30 99,-30 59,0 104,19 136,58 32,38 48,93 48,164l0 32 -303 0c1,44 14,80 39,107 25,27 56,40 94,40 27,0 50,-5 69,-16 18,-11 35,-26 49,-44l47 37c-38,57 -94,86 -169,86zm-10 -401c-31,0 -56,11 -77,34 -21,22 -34,54 -39,94l224 0 0 -5c-2,-39 -13,-70 -32,-91 -18,-22 -44,-32 -76,-32zm345 -54l3 56c34,-43 79,-65 134,-65 94,0 142,53 143,160l0 296 -77 0 0 -296c0,-32 -7,-56 -22,-72 -14,-15 -37,-23 -68,-23 -24,0 -46,7 -65,20 -19,13 -33,31 -44,52l0 319 -76 0 0 -447 72 0zm478 447l-76 0 0 -447 76 0 0 447zm-82 -566c0,-13 3,-23 11,-32 7,-9 19,-13 34,-13 14,0 26,4 33,13 8,9 12,19 12,32 0,12 -4,22 -12,31 -7,8 -19,12 -33,12 -15,0 -27,-4 -34,-12 -8,-9 -11,-19 -11,-31zm481 566c-5,-9 -8,-25 -11,-47 -36,37 -78,55 -127,55 -45,0 -81,-12 -109,-37 -28,-25 -42,-57 -42,-95 0,-47 17,-83 53,-109 35,-26 85,-38 149,-38l75 0 0 -35c0,-27 -8,-48 -24,-64 -16,-16 -40,-24 -71,-24 -27,0 -50,7 -69,20 -18,14 -27,31 -27,50l-77 0c0,-22 8,-43 23,-64 16,-21 38,-38 65,-50 27,-12 57,-18 90,-18 51,0 91,13 121,39 29,25 44,61 45,106l0 206c0,41 5,74 16,98l0 7 -80 0zm-127 -57c24,0 46,-6 68,-19 21,-12 37,-29 47,-49l0 -92 -60 0c-94,0 -141,27 -141,83 0,24 8,43 24,56 16,14 37,21 62,21z"/>
  <path class="fil15" d="M968 2499l0 236 -79 0 0 -602 222 0c66,0 117,17 154,50 38,34 57,78 57,134 0,58 -19,103 -55,135 -37,32 -89,47 -157,47l-142 0zm0 -65l143 0c42,0 75,-10 97,-30 23,-20 34,-49 34,-87 0,-35 -11,-64 -34,-86 -22,-21 -53,-32 -93,-33l-147 0 0 236zm417 73c0,-44 9,-83 26,-118 17,-35 41,-62 72,-81 30,-19 66,-29 105,-29 61,0 110,21 148,63 37,43 56,99 56,169l0 5c0,44 -8,83 -25,117 -17,35 -40,62 -71,81 -31,20 -67,29 -107,29 -61,0 -110,-21 -148,-63 -37,-42 -56,-98 -56,-168l0 -5zm77 9c0,50 11,89 34,120 23,30 54,45 93,45 39,0 69,-16 92,-46 23,-31 35,-73 35,-128 0,-49 -12,-89 -35,-119 -24,-31 -54,-46 -93,-46 -38,0 -68,15 -91,45 -24,30 -35,73 -35,129zm519 -140l65 -26 0 51 -65 25 0 309 -77 0 0 -279 -60 22 0 -50 60 -23 0 -305 77 0 0 276zm410 356c-4,-10 -7,-25 -9,-44 -35,37 -78,55 -127,55 -44,0 -80,-12 -109,-37 -28,-25 -42,-57 -42,-95 0,-47 18,-83 53,-109 36,-25 85,-38 150,-38l74 0 0 -35c0,-27 -8,-48 -24,-64 -16,-16 -40,-24 -71,-24 -27,0 -50,7 -68,21 -19,13 -28,30 -28,50l-77 0c0,-23 8,-44 24,-65 16,-21 37,-37 64,-50 28,-12 57,-18 90,-18 51,0 92,13 121,39 29,26 44,61 45,106l0 206c0,41 6,74 16,98l0 7 -13 0 -24 18c-32,26 -47,50 -47,74 0,20 11,30 32,30 13,0 27,-4 41,-11l6 49c-19,12 -41,18 -66,18 -25,0 -44,-7 -58,-21 -15,-14 -22,-33 -22,-57 0,-39 23,-74 69,-103zm-125 -54c24,0 47,-6 68,-19 22,-12 37,-29 47,-48l0 -93 -60 0c-94,0 -141,28 -141,83 0,24 8,43 24,57 17,13 37,20 62,20zm491 3c27,0 51,-9 71,-25 21,-17 32,-37 34,-62l72 0c-1,26 -10,50 -26,73 -16,23 -38,42 -65,56 -27,13 -56,20 -86,20 -61,0 -110,-20 -146,-61 -36,-40 -54,-96 -54,-167l0 -13c0,-43 8,-82 24,-116 16,-34 39,-60 69,-79 30,-18 65,-28 106,-28 50,0 92,15 125,45 34,30 51,69 53,117l-72 0c-2,-29 -13,-53 -33,-71 -19,-19 -44,-28 -73,-28 -39,0 -69,14 -90,42 -21,28 -32,68 -32,121l0 15c0,51 10,91 32,119 21,28 51,42 91,42zm336 -9l261 0 0 63 -355 0 0 -57 247 -327 -243 0 0 -63 339 0 0 54 -249 330zm526 71c-60,0 -110,-20 -148,-59 -38,-40 -57,-94 -57,-160l0 -14c0,-45 9,-84 26,-119 17,-35 40,-63 71,-82 30,-20 63,-30 99,-30 58,0 103,19 136,58 32,38 48,93 48,164l0 32 -303 0c1,44 14,80 38,107 25,27 56,41 95,41 27,0 49,-6 68,-17 19,-11 35,-26 49,-44l47 37c-37,57 -94,86 -169,86zm-9 -401c-31,0 -57,11 -78,34 -21,22 -34,54 -39,95l224 0 0 -6c-2,-39 -12,-69 -31,-91 -19,-21 -44,-32 -76,-32zm345 -54l2 56c34,-43 79,-65 134,-65 95,0 142,54 143,160l0 296 -76 0 0 -296c-1,-32 -8,-56 -22,-71 -15,-16 -37,-24 -68,-24 -25,0 -47,7 -65,20 -19,13 -34,31 -44,52l0 319 -77 0 0 -447 73 0zm478 447l-77 0 0 -447 77 0 0 447zm-83 -566c0,-13 4,-23 11,-32 8,-8 19,-13 34,-13 15,0 26,5 34,13 8,9 11,19 11,32 0,12 -3,23 -11,31 -8,8 -19,12 -34,12 -15,0 -26,-4 -34,-12 -7,-8 -11,-19 -11,-31zm481 566c-4,-9 -8,-25 -11,-47 -35,37 -78,55 -127,55 -44,0 -80,-12 -108,-37 -29,-25 -43,-57 -43,-95 0,-47 18,-83 53,-109 36,-25 86,-38 150,-38l74 0 0 -35c0,-27 -8,-48 -24,-64 -16,-16 -39,-24 -70,-24 -28,0 -51,7 -69,21 -19,13 -28,30 -28,50l-77 0c0,-23 8,-44 24,-65 16,-21 37,-37 65,-50 27,-12 56,-18 89,-18 52,0 92,13 121,39 29,26 45,61 46,106l0 206c0,41 5,74 15,98l0 7 -80 0zm-127 -57c24,0 47,-6 68,-19 22,-12 37,-29 47,-48l0 -93 -60 0c-93,0 -140,28 -140,83 0,24 8,43 24,57 16,13 36,20 61,20z"/>
 </g>
</svg>
