<?xml version="1.0" encoding="UTF-8"?>
<!DOCTYPE svg PUBLIC "-//W3C//DTD SVG 1.1//EN" "http://www.w3.org/Graphics/SVG/1.1/DTD/svg11.dtd">
<!-- Creator: CorelDRAW X8 -->
<svg xmlns="http://www.w3.org/2000/svg" xml:space="preserve" width="182.88mm" height="325.12mm" version="1.1" style="shape-rendering:geometricPrecision; text-rendering:geometricPrecision; image-rendering:optimizeQuality; fill-rule:evenodd; clip-rule:evenodd"
viewBox="0 0 18288 32512"
 xmlns:xlink="http://www.w3.org/1999/xlink">
 <defs>
  <style type="text/css">
   <![CDATA[
    .fil0 {fill:black}
    .fil1 {fill:white;fill-rule:nonzero}
   ]]>
  </style>
 </defs>
 <g id="Warstwa_x0020_1">
  <metadata id="CorelCorpID_0Corel-Layer"/>
  <g id="_2855740450208">
   <rect class="fil0" y="-5" width="18288" height="2804"/>
   <path class="fil1" d="M6246 1470l0 353 -119 0 0 -903 333 0c99,0 176,26 232,76 56,50 84,117 84,201 0,87 -27,155 -82,202 -55,48 -133,71 -235,71l-213 0zm0 -98l214 0c64,0 112,-15 146,-45 34,-29 51,-73 51,-130 0,-53 -17,-96 -51,-129 -34,-32 -80,-49 -139,-50l-221 0 0 354zm625 110c0,-66 13,-125 39,-177 26,-53 62,-94 108,-122 46,-29 99,-43 158,-43 91,0 165,32 222,95 56,63 84,147 84,252l0 8c0,66 -12,124 -37,176 -25,52 -61,93 -108,122 -46,29 -100,43 -160,43 -91,0 -165,-32 -221,-95 -56,-63 -85,-147 -85,-251l0 -8zm116 13c0,75 17,134 51,180 35,45 81,67 139,67 58,0 105,-23 139,-69 34,-45 51,-109 51,-192 0,-73 -17,-133 -52,-178 -35,-46 -81,-69 -139,-69 -57,0 -102,22 -137,68 -35,45 -52,109 -52,193zm778 -210l98 -38 0 76 -98 38 0 462 -115 0 0 -418 -89 34 0 -76 89 -34 0 -458 115 0 0 414zm616 534c-6,-15 -11,-37 -14,-66 -53,55 -117,83 -191,83 -66,0 -120,-19 -162,-56 -43,-38 -64,-85 -64,-142 0,-70 27,-125 80,-163 53,-39 128,-58 224,-58l111 0 0 -53c0,-40 -11,-72 -36,-96 -24,-23 -59,-35 -106,-35 -41,0 -75,10 -103,31 -27,20 -41,45 -41,75l-115 0c0,-34 11,-66 35,-98 24,-31 56,-55 97,-74 41,-18 85,-27 134,-27 78,0 138,19 182,58 44,39 66,92 68,160l0 308c0,62 8,111 24,147l0 10 -21 0 -36 28c-46,38 -70,75 -70,110 0,30 16,45 48,45 20,0 41,-5 63,-16l8 74c-29,18 -62,27 -100,27 -36,0 -65,-11 -87,-32 -21,-21 -32,-50 -32,-85 0,-59 35,-111 104,-155zm-188 -81c36,0 70,-9 102,-28 33,-19 56,-43 70,-73l0 -139 -90 0c-140,0 -210,42 -210,125 0,36 12,64 36,85 24,20 54,30 92,30zm736 4c41,0 77,-12 107,-37 31,-25 48,-56 51,-93l109 0c-3,39 -16,75 -40,110 -25,35 -57,62 -98,83 -40,21 -84,31 -129,31 -91,0 -164,-30 -218,-91 -54,-61 -81,-145 -81,-251l0 -19c0,-65 12,-124 36,-174 24,-51 58,-91 103,-119 45,-28 98,-42 159,-42 76,0 138,22 188,68 50,45 76,103 80,175l-109 0c-3,-43 -20,-79 -49,-107 -30,-28 -66,-42 -110,-42 -58,0 -103,21 -135,63 -32,42 -48,103 -48,182l0 22c0,77 16,137 48,178 31,42 77,63 136,63zm504 -13l392 0 0 94 -532 0 0 -84 370 -491 -365 0 0 -95 509 0 0 81 -374 495zm790 107c-91,0 -165,-30 -222,-90 -57,-59 -86,-139 -86,-239l0 -22c0,-66 13,-125 39,-178 25,-52 60,-93 106,-123 46,-29 95,-44 149,-44 87,0 155,29 203,86 48,58 73,140 73,247l0 48 -455 0c2,66 21,119 58,160 37,41 84,61 141,61 41,0 75,-8 103,-25 28,-16 53,-38 74,-65l70 54c-56,87 -141,130 -253,130zm-14 -602c-47,0 -85,17 -117,51 -31,34 -51,81 -58,142l336 0 0 -9c-3,-58 -19,-104 -47,-136 -28,-32 -66,-48 -114,-48zm517 -81l4 84c51,-65 118,-97 201,-97 141,0 213,80 214,240l0 443 -115 0 0 -443c0,-49 -11,-84 -33,-107 -21,-24 -55,-35 -101,-35 -37,0 -70,10 -98,29 -28,20 -50,46 -66,79l0 477 -114 0 0 -670 108 0zm717 670l-115 0 0 -670 115 0 0 670zm-124 -849c0,-18 6,-34 17,-47 11,-13 28,-19 51,-19 22,0 39,6 50,19 12,13 18,29 18,47 0,19 -6,35 -18,47 -11,13 -28,19 -50,19 -23,0 -40,-6 -51,-19 -11,-12 -17,-28 -17,-47zm722 849c-7,-13 -12,-36 -17,-70 -53,55 -117,83 -190,83 -67,0 -121,-19 -163,-56 -43,-38 -64,-85 -64,-142 0,-70 27,-125 80,-163 53,-39 128,-58 224,-58l112 0 0 -53c0,-40 -12,-72 -36,-96 -24,-23 -60,-35 -106,-35 -41,0 -76,10 -103,31 -28,20 -42,45 -42,75l-115 0c0,-34 12,-66 35,-98 24,-31 56,-55 97,-74 41,-18 86,-27 135,-27 77,0 137,19 181,58 44,39 67,92 68,160l0 308c0,62 8,111 24,147l0 10 -120 0zm-191 -85c36,0 70,-9 103,-28 32,-19 55,-43 70,-73l0 -139 -90 0c-141,0 -211,42 -211,125 0,36 12,64 36,85 24,20 55,30 92,30z"/>
  </g>
 </g>
</svg>
