<?xml version="1.0" encoding="UTF-8"?>
<!DOCTYPE svg PUBLIC "-//W3C//DTD SVG 1.1//EN" "http://www.w3.org/Graphics/SVG/1.1/DTD/svg11.dtd">
<!-- Creator: CorelDRAW X8 -->
<svg xmlns="http://www.w3.org/2000/svg" xml:space="preserve" width="182.88mm" height="325.12mm" version="1.1" style="shape-rendering:geometricPrecision; text-rendering:geometricPrecision; image-rendering:optimizeQuality; fill-rule:evenodd; clip-rule:evenodd"
viewBox="0 0 18288 32512"
 xmlns:xlink="http://www.w3.org/1999/xlink">
 <defs>
  <style type="text/css">
   <![CDATA[
    .fil0 {fill:white}
    .fil1 {fill:#FF0028;fill-rule:nonzero}
   ]]>
  </style>
 </defs>
 <g id="Warstwa_x0020_1">
  <metadata id="CorelCorpID_0Corel-Layer"/>
  <g id="_2855740407776">
   <polygon class="fil0" points="0,42 18288,42 18288,3852 0,3852 "/>
   <path class="fil1" d="M5491 1336l0 819c-1,114 -36,206 -107,279 -71,72 -167,112 -288,121l-42 2c-132,0 -237,-36 -315,-107 -79,-71 -118,-169 -120,-294l0 -820 158 0 0 815c0,87 23,155 71,203 48,49 117,73 206,73 89,0 158,-24 206,-72 48,-48 71,-116 71,-203l0 -816 160 0zm748 967c0,-42 -15,-74 -47,-96 -31,-23 -85,-43 -163,-60 -77,-16 -138,-36 -184,-59 -45,-23 -79,-51 -101,-83 -22,-32 -32,-70 -32,-114 0,-73 31,-135 93,-186 62,-51 141,-76 237,-76 102,0 184,26 247,78 63,53 95,120 95,201l-154 0c0,-42 -18,-78 -53,-108 -36,-30 -81,-46 -135,-46 -55,0 -99,12 -130,37 -32,24 -47,56 -47,95 0,37 14,64 43,83 30,19 82,37 159,54 76,17 138,38 185,61 48,24 83,53 106,86 23,33 34,74 34,122 0,80 -32,144 -96,192 -64,49 -147,73 -249,73 -71,0 -135,-13 -190,-38 -55,-26 -98,-61 -129,-106 -31,-46 -47,-95 -47,-148l153 0c3,51 23,92 62,122 38,30 89,45 151,45 58,0 105,-12 140,-35 35,-24 52,-55 52,-94zm560 -874l0 217 167 0 0 118 -167 0 0 555c0,36 7,63 22,81 15,18 40,27 76,27 18,0 42,-4 73,-10l0 124c-40,10 -79,16 -117,16 -69,0 -120,-21 -155,-62 -35,-41 -52,-100 -52,-176l0 -555 -163 0 0 -118 163 0 0 -217 153 0zm898 1111c-9,-17 -16,-49 -22,-94 -71,74 -156,111 -254,111 -89,0 -161,-25 -218,-75 -56,-50 -84,-113 -84,-190 0,-93 35,-165 106,-217 71,-51 170,-77 299,-77l149 0 0 -70c0,-53 -16,-96 -48,-128 -32,-32 -79,-47 -142,-47 -54,0 -100,13 -137,41 -37,27 -55,61 -55,100l-154 0c0,-45 16,-88 47,-130 32,-41 75,-74 130,-99 54,-24 113,-36 178,-36 103,0 184,26 243,77 58,52 89,123 90,213l0 412c0,82 11,147 32,196l0 13 -160 0zm-254 -113c48,0 93,-13 136,-38 43,-25 74,-58 94,-97l0 -185 -120 0c-188,0 -281,55 -281,165 0,49 16,87 47,114 33,27 74,41 124,41zm1414 -98l172 -683 153 0 -260 894 -124 0 -218 -678 -212 678 -124 0 -259 -894 152 0 176 669 208 -669 123 0 213 683zm647 211l-153 0 0 -894 153 0 0 894zm-165 -1132c0,-25 8,-46 23,-63 15,-17 37,-26 67,-26 30,0 53,9 68,26 15,17 23,38 23,63 0,25 -8,46 -23,62 -15,17 -38,25 -68,25 -30,0 -52,-8 -67,-25 -15,-16 -23,-37 -23,-62zm781 1149c-121,0 -220,-40 -296,-119 -76,-80 -114,-187 -114,-320l0 -28c0,-89 17,-168 51,-238 34,-70 81,-125 142,-164 61,-39 127,-59 198,-59 117,0 207,38 272,115 64,77 96,186 96,329l0 64 -606 0c2,88 28,159 77,213 50,55 112,82 189,82 54,0 99,-11 137,-33 37,-22 70,-51 98,-88l94 73c-75,115 -188,173 -338,173zm-19 -803c-61,0 -113,23 -155,68 -42,45 -68,108 -78,190l448 0 0 -12c-4,-78 -25,-138 -63,-181 -37,-43 -88,-65 -152,-65zm690 -108l5 112c68,-86 158,-129 268,-129 189,0 284,107 286,320l0 591 -153 0 0 -592c-1,-64 -15,-112 -44,-142 -29,-31 -74,-47 -136,-47 -49,0 -93,14 -130,40 -38,26 -67,61 -88,104l0 637 -153 0 0 -894 145 0zm956 894l-153 0 0 -894 153 0 0 894zm-165 -1132c0,-25 7,-46 22,-63 15,-17 38,-26 68,-26 30,0 52,9 67,26 16,17 23,38 23,63 0,25 -7,46 -23,62 -15,17 -37,25 -67,25 -30,0 -53,-8 -68,-25 -15,-16 -22,-37 -22,-62zm962 1132c-9,-17 -16,-49 -22,-94 -71,74 -156,111 -254,111 -89,0 -161,-25 -217,-75 -57,-50 -85,-113 -85,-190 0,-93 35,-165 106,-217 71,-51 171,-77 299,-77l149 0 0 -70c0,-53 -16,-96 -48,-128 -32,-32 -79,-47 -141,-47 -55,0 -101,13 -138,41 -37,27 -55,61 -55,100l-154 0c0,-45 16,-88 47,-130 32,-41 75,-74 130,-99 54,-24 113,-36 179,-36 103,0 183,26 242,77 58,52 89,123 91,213l0 412c0,82 10,147 31,196l0 13 -160 0zm-254 -113c48,0 93,-13 136,-38 43,-25 74,-58 94,-97l0 -185 -120 0c-187,0 -281,55 -281,165 0,49 16,87 48,114 32,27 73,41 123,41z"/>
  </g>
 </g>
</svg>
