<?xml version="1.0" encoding="UTF-8"?>
<!DOCTYPE svg PUBLIC "-//W3C//DTD SVG 1.1//EN" "http://www.w3.org/Graphics/SVG/1.1/DTD/svg11.dtd">
<!-- Creator: CorelDRAW X8 -->
<svg xmlns="http://www.w3.org/2000/svg" xml:space="preserve" width="182.88mm" height="325.12mm" version="1.1" style="shape-rendering:geometricPrecision; text-rendering:geometricPrecision; image-rendering:optimizeQuality; fill-rule:evenodd; clip-rule:evenodd"
viewBox="0 0 18288 32512"
 xmlns:xlink="http://www.w3.org/1999/xlink">
 <defs>
  <style type="text/css">
   <![CDATA[
    .fil0 {fill:white}
   ]]>
  </style>
 </defs>
 <g id="Warstwa_x0020_1">
  <metadata id="CorelCorpID_0Corel-Layer"/>
  <path class="fil0" d="M2647 5670c374,0 677,303 677,677 0,330 -235,594 -547,655 -42,8 -86,23 -130,23 -374,0 -677,-304 -677,-678 0,-374 303,-677 677,-677zm227 1306l6 1336 -225 228 -228 -144 101 -186 -101 -93 76 -186 -85 -254 85 -229 -59 -102 -6 -359 34 15 66 14 113 9 180 -36 43 -13z"/>
 </g>
</svg>
