<?xml version="1.0" encoding="UTF-8"?>
<!DOCTYPE svg PUBLIC "-//W3C//DTD SVG 1.1//EN" "http://www.w3.org/Graphics/SVG/1.1/DTD/svg11.dtd">
<!-- Creator: CorelDRAW X8 -->
<svg xmlns="http://www.w3.org/2000/svg" xml:space="preserve" width="182.88mm" height="325.12mm" version="1.1" style="shape-rendering:geometricPrecision; text-rendering:geometricPrecision; image-rendering:optimizeQuality; fill-rule:evenodd; clip-rule:evenodd"
viewBox="0 0 18288 32512"
 xmlns:xlink="http://www.w3.org/1999/xlink">
 <defs>
  <style type="text/css">
   <![CDATA[
    .str0 {stroke:black;stroke-width:20}
    .fil2 {fill:none}
    .fil0 {fill:black}
    .fil3 {fill:#040707}
    .fil1 {fill:#FF8FC5}
    .fil4 {fill:#FF7DBC}
   ]]>
  </style>
 </defs>
 <g id="Warstwa_x0020_1">
  <metadata id="CorelCorpID_0Corel-Layer"/>
  <path class="fil0" d="M9277 2794c304,-11 2116,325 2116,2117 0,1792 -1566,2116 -2116,2116 -551,0 -678,-755 -134,-628 543,127 1086,163 1390,-176 303,-339 550,-854 197,-1065 -353,-212 -712,353 -670,501 42,148 -169,261 -219,63 -49,-197 21,-621 21,-621 0,0 -395,50 -395,-261 0,-310 151,-421 151,-421 0,0 -285,-108 -652,76 -367,183 -465,381 -437,620 28,240 423,381 423,381 0,0 -480,85 -691,-98 -212,-184 -92,-163 -92,-163 0,0 -233,92 -416,71 -184,-21 -261,-35 -261,-35 0,0 -141,169 -162,232 -22,64 -28,172 -28,172 0,0 -426,-1043 242,-1980 667,-936 1733,-901 1733,-901z"/>
  <path class="fil1" d="M11131 4750c-393,9 -606,-15 -896,285 -142,146 -246,-332 -100,-480 105,-106 196,-132 303,-173 -212,-24 -364,-7 -546,-341 -107,-196 -180,-812 89,-906 -281,121 -180,906 223,1138 112,65 580,40 286,154 -269,105 -505,271 -305,568 292,-299 554,-263 946,-245z"/>
  <path class="fil2" d="M11131 4750c-356,0 -489,-38 -806,154 -158,96 -125,276 -229,-81 -119,-410 761,-467 330,-461 -336,5 -612,-368 -607,-720 2,-121 -28,-455 162,-507"/>
  <path class="fil1" d="M8965 4264c-10,-406 120,-242 354,-457 -75,-116 -631,-51 -727,322 50,-516 787,-500 793,-322 8,235 -358,-20 -420,457z"/>
  <path class="fil2" d="M8965 4264c0,-366 123,-220 378,-436 90,-76 -452,-270 -731,205 -3,4 -21,85 -20,96"/>
  <path class="fil1" d="M8154 3727c113,-439 783,-331 734,-549 -25,-21 -438,50 -649,-1 221,19 702,-159 713,-2 21,321 -631,157 -798,552z"/>
  <path class="fil2" d="M8154 3727c99,-394 574,-239 730,-467 185,-268 -393,4 -645,-83"/>
  <g id="_2306882784992">
   <path class="fil0" d="M8856 4835c-219,121 -555,-53 -586,-176 47,64 445,192 586,176z"/>
  </g>
  <path class="fil2" d="M8856 4835c-230,98 -579,-147 -586,-176"/>
  <g id="_2306882784896">
   <path class="fil0" d="M8828 4701c-262,37 -407,31 -529,-212 204,168 266,150 529,212z"/>
  </g>
  <path class="fil2" d="M8828 4701c-243,0 -403,-29 -529,-212"/>
  <g id="_2306882783008">
   <path class="fil0" d="M7784 4553c-304,64 -649,149 -889,-148 268,191 587,130 889,148z"/>
  </g>
  <path class="fil2" d="M7784 4553c-294,-7 -349,123 -739,-55 -35,-16 -129,-61 -150,-93"/>
  <g id="_2306882782336">
   <path class="fil0" d="M7734 4426c-187,24 -477,24 -592,-162 92,65 474,129 592,162z"/>
  </g>
  <path class="fil2" d="M7734 4426c-136,0 -509,-50 -592,-162"/>
  <path class="fil3" d="M7677 4904c165,-45 66,-241 -82,-199 -124,34 -91,247 82,199z"/>
  <path class="fil4" d="M7677 4904c-173,48 -206,-165 -82,-199 148,-42 247,154 82,199zm-176 -201c-129,353 376,299 301,64 -7,-22 -44,-69 -68,-83 -97,-56 -166,-13 -233,19z"/>
  <path class="fil3" d="M8259 4929c34,-77 50,-169 -67,-175 -86,-5 -129,38 -128,139 55,75 124,62 195,36z"/>
  <path class="fil4" d="M8259 4929c-71,26 -140,39 -195,-36 -1,-101 42,-144 128,-139 117,6 101,98 67,175zm67 -154c-153,-136 -353,-14 -290,149 39,103 308,122 290,-149z"/>
  <path class="fil4" d="M7984 4659c31,-86 42,-83 107,-84l39 0c2,0 7,0 10,-1 -65,-48 -111,-42 -166,23 -32,-63 -112,-102 -166,-31 107,-18 205,29 87,151l125 12 -29 -59c-2,-2 -5,-7 -7,-11z"/>
  <path class="fil2 str0" d="M8261 5398c-107,-93 -129,-133 -125,-151 -71,25 -242,75 -383,59 -184,-21 -261,-35 -261,-35 0,0 -141,169 -162,232 -22,64 -28,172 -28,172 0,0 -195,-479 -114,-1079 -103,-26 -201,-81 -285,-182 -4,-3 -6,-6 -8,-9 95,68 198,104 303,123 10,-56 22,-113 37,-170 -37,-24 -69,-55 -93,-94 21,15 59,30 106,45 57,-202 151,-410 296,-614 667,-936 1733,-901 1733,-901 304,-11 2116,325 2116,2117 0,1792 -1566,2116 -2116,2116 -551,0 -678,-755 -134,-628 543,127 1086,163 1390,-176 303,-339 550,-854 197,-1065 -353,-212 -712,353 -670,501 42,148 -169,261 -219,63 -49,-197 21,-621 21,-621 0,0 -395,50 -395,-261 0,-310 151,-421 151,-421 0,0 -285,-108 -652,76 -115,57 -203,116 -270,177 38,8 81,17 132,29 -66,9 -125,16 -177,17 -23,25 -43,51 -59,78 103,28 206,46 264,39 -89,49 -198,50 -297,25 -33,80 -41,165 -30,255 28,240 423,381 423,381 0,0 -480,85 -691,-98z"/>
 </g>
</svg>
