<?xml version="1.0" encoding="UTF-8"?>
<!DOCTYPE svg PUBLIC "-//W3C//DTD SVG 1.1//EN" "http://www.w3.org/Graphics/SVG/1.1/DTD/svg11.dtd">
<!-- Creator: CorelDRAW X8 -->
<svg xmlns="http://www.w3.org/2000/svg" xml:space="preserve" width="182.88mm" height="325.12mm" version="1.1" style="shape-rendering:geometricPrecision; text-rendering:geometricPrecision; image-rendering:optimizeQuality; fill-rule:evenodd; clip-rule:evenodd"
viewBox="0 0 18288 32512"
 xmlns:xlink="http://www.w3.org/1999/xlink">
 <defs>
  <style type="text/css">
   <![CDATA[
    .fil0 {fill:black}
    .fil1 {fill:white}
   ]]>
  </style>
 </defs>
 <g id="Warstwa_x0020_1">
  <metadata id="CorelCorpID_0Corel-Layer"/>
  <g id="_2806541009472">
   <polygon class="fil0" points="0,-5 18288,-5 18288,2799 0,2799 "/>
   <path class="fil0" d="M9146 2244c-122,4 -847,-130 -847,-847 0,-717 627,-847 847,-847 220,0 271,302 53,251 -217,-50 -434,-64 -556,71 -121,136 -220,342 -79,426 141,85 285,-141 268,-200 -17,-59 68,-105 88,-26 20,79 -9,249 -9,249 0,0 158,-20 158,104 0,124 -60,169 -60,169 0,0 114,43 261,-31 147,-73 186,-152 175,-248 -12,-96 -170,-152 -170,-152 0,0 192,-34 277,39 85,74 37,65 37,65 0,0 93,-37 166,-28 74,8 105,14 105,14 0,0 56,-68 65,-93 8,-25 10,-69 10,-69 0,0 171,418 -96,792 -267,375 -693,361 -693,361z"/>
   <path class="fil1" d="M9146 2244c-122,4 -847,-130 -847,-847 0,-717 627,-847 847,-847 220,0 271,302 53,251 -217,-50 -434,-64 -556,71 -121,136 -220,342 -79,426 141,85 285,-141 268,-200 -17,-59 68,-105 88,-26 20,79 -9,249 -9,249 0,0 158,-20 158,104 0,124 -60,169 -60,169 0,0 114,43 261,-31 147,-73 186,-152 175,-248 -12,-96 -170,-152 -170,-152 0,0 192,-34 277,39 85,74 37,65 37,65 0,0 93,-37 166,-28 74,8 105,14 105,14 0,0 56,-68 65,-93 8,-25 10,-69 10,-69 0,0 171,418 -96,792 -267,375 -693,361 -693,361z"/>
  </g>
 </g>
</svg>
