<?xml version="1.0" encoding="UTF-8"?>
<!DOCTYPE svg PUBLIC "-//W3C//DTD SVG 1.1//EN" "http://www.w3.org/Graphics/SVG/1.1/DTD/svg11.dtd">
<!-- Creator: CorelDRAW X8 -->
<svg xmlns="http://www.w3.org/2000/svg" xml:space="preserve" width="182.88mm" height="325.12mm" version="1.1" style="shape-rendering:geometricPrecision; text-rendering:geometricPrecision; image-rendering:optimizeQuality; fill-rule:evenodd; clip-rule:evenodd"
viewBox="0 0 18288 32512"
 xmlns:xlink="http://www.w3.org/1999/xlink">
 <defs>
  <style type="text/css">
   <![CDATA[
    .str1 {stroke:white;stroke-width:84.66}
    .str0 {stroke:white;stroke-width:84.66;stroke-linecap:round;stroke-linejoin:round}
    .fil0 {fill:none}
   ]]>
  </style>
 </defs>
 <g id="Warstwa_x0020_1">
  <metadata id="CorelCorpID_0Corel-Layer"/>
  <g id="_2855587632304">
   <path class="fil0 str0" d="M16896 30972l922 0c72,0 131,59 131,131l0 922c0,73 -59,132 -131,132l-922 0c-73,0 -132,-59 -132,-132l0 -922c0,-72 59,-131 132,-131z"/>
   <path class="fil0 str1" d="M17357 31268c163,0 296,133 296,296 0,164 -133,297 -296,297 -164,0 -297,-133 -297,-297 0,-163 133,-296 297,-296z"/>
  </g>
 </g>
</svg>
